%TF.GenerationSoftware,Altium Limited,Altium Designer,24.1.2 (44)*%
G04 Layer_Color=255*
%FSLAX45Y45*%
%MOMM*%
%TF.SameCoordinates,9F746DA8-F38A-4014-887F-1EC8760E2830*%
%TF.FilePolarity,Positive*%
%TF.FileFunction,Pads,Bot*%
%TF.Part,Single*%
G01*
G75*
%TA.AperFunction,ComponentPad*%
%ADD35R,1.49800X1.49800*%
%ADD36C,1.49800*%
%ADD37C,1.06700*%
%ADD38C,1.60000*%
G04:AMPARAMS|DCode=39|XSize=1.6mm|YSize=1.6mm|CornerRadius=0.4mm|HoleSize=0mm|Usage=FLASHONLY|Rotation=0.000|XOffset=0mm|YOffset=0mm|HoleType=Round|Shape=RoundedRectangle|*
%AMROUNDEDRECTD39*
21,1,1.60000,0.80000,0,0,0.0*
21,1,0.80000,1.60000,0,0,0.0*
1,1,0.80000,0.40000,-0.40000*
1,1,0.80000,-0.40000,-0.40000*
1,1,0.80000,-0.40000,0.40000*
1,1,0.80000,0.40000,0.40000*
%
%ADD39ROUNDEDRECTD39*%
G04:AMPARAMS|DCode=40|XSize=1.6mm|YSize=1.6mm|CornerRadius=0.4mm|HoleSize=0mm|Usage=FLASHONLY|Rotation=90.000|XOffset=0mm|YOffset=0mm|HoleType=Round|Shape=RoundedRectangle|*
%AMROUNDEDRECTD40*
21,1,1.60000,0.80000,0,0,90.0*
21,1,0.80000,1.60000,0,0,90.0*
1,1,0.80000,0.40000,0.40000*
1,1,0.80000,0.40000,-0.40000*
1,1,0.80000,-0.40000,-0.40000*
1,1,0.80000,-0.40000,0.40000*
%
%ADD40ROUNDEDRECTD40*%
%ADD41C,1.45000*%
D35*
X8685000Y10565000D02*
D03*
D36*
X8035000D02*
D03*
X8685000Y11015000D02*
D03*
X8035000D02*
D03*
D37*
X9613500Y10124100D02*
D03*
Y9920900D02*
D03*
X10121500Y10022500D02*
D03*
D38*
X9246000Y11250000D02*
D03*
X9500000D02*
D03*
X9754000D02*
D03*
X9846000Y10600000D02*
D03*
X9592000D02*
D03*
X9338000D02*
D03*
X10800000Y10354000D02*
D03*
Y10608000D02*
D03*
Y10862000D02*
D03*
X10797500Y8265000D02*
D03*
Y8011000D02*
D03*
Y7757000D02*
D03*
X7065000Y8490500D02*
D03*
Y8744500D02*
D03*
Y8998500D02*
D03*
X7692000Y7925000D02*
D03*
X7946000D02*
D03*
X8200000D02*
D03*
X7692000Y7600000D02*
D03*
X7946000D02*
D03*
X8200000D02*
D03*
D39*
X8992000Y11250000D02*
D03*
X10100000Y10600000D02*
D03*
X7438000Y7925000D02*
D03*
Y7600000D02*
D03*
D40*
X10800000Y10100000D02*
D03*
X10797500Y8519000D02*
D03*
X7065000Y8236500D02*
D03*
D41*
X10610000Y9150000D02*
D03*
Y9650000D02*
D03*
%TF.MD5,0eedadd1514406843f521f23ebc62c2f*%
M02*
