%TF.GenerationSoftware,Altium Limited,Altium Designer,24.1.2 (44)*%
G04 Layer_Physical_Order=4*
G04 Layer_Color=16711680*
%FSLAX45Y45*%
%MOMM*%
%TF.SameCoordinates,9F746DA8-F38A-4014-887F-1EC8760E2830*%
%TF.FilePolarity,Positive*%
%TF.FileFunction,Copper,L4,Bot,Signal*%
%TF.Part,Single*%
G01*
G75*
%TA.AperFunction,Conductor*%
%ADD28C,0.25000*%
%ADD29C,0.30000*%
%ADD31C,1.00000*%
%ADD33C,0.70000*%
%TA.AperFunction,ComponentPad*%
%ADD35R,1.49800X1.49800*%
%ADD36C,1.49800*%
%ADD37C,1.06700*%
%ADD38C,1.60000*%
G04:AMPARAMS|DCode=39|XSize=1.6mm|YSize=1.6mm|CornerRadius=0.4mm|HoleSize=0mm|Usage=FLASHONLY|Rotation=0.000|XOffset=0mm|YOffset=0mm|HoleType=Round|Shape=RoundedRectangle|*
%AMROUNDEDRECTD39*
21,1,1.60000,0.80000,0,0,0.0*
21,1,0.80000,1.60000,0,0,0.0*
1,1,0.80000,0.40000,-0.40000*
1,1,0.80000,-0.40000,-0.40000*
1,1,0.80000,-0.40000,0.40000*
1,1,0.80000,0.40000,0.40000*
%
%ADD39ROUNDEDRECTD39*%
G04:AMPARAMS|DCode=40|XSize=1.6mm|YSize=1.6mm|CornerRadius=0.4mm|HoleSize=0mm|Usage=FLASHONLY|Rotation=90.000|XOffset=0mm|YOffset=0mm|HoleType=Round|Shape=RoundedRectangle|*
%AMROUNDEDRECTD40*
21,1,1.60000,0.80000,0,0,90.0*
21,1,0.80000,1.60000,0,0,90.0*
1,1,0.80000,0.40000,0.40000*
1,1,0.80000,0.40000,-0.40000*
1,1,0.80000,-0.40000,-0.40000*
1,1,0.80000,-0.40000,0.40000*
%
%ADD40ROUNDEDRECTD40*%
%ADD41C,1.45000*%
%TA.AperFunction,ViaPad*%
%ADD42C,0.80000*%
%ADD43C,0.70000*%
%ADD44C,0.50000*%
D28*
X9479500Y11229500D02*
X9500000Y11250000D01*
X9479500Y9829500D02*
Y11229500D01*
X9475000Y9825000D02*
X9479500Y9829500D01*
X9250000Y9900000D02*
Y10528901D01*
X9225500Y10553401D02*
X9250000Y10528901D01*
X9225500Y10862020D02*
X9242500Y10879019D01*
Y11246500D01*
X9246000Y11250000D01*
X9180500Y10534762D02*
X9197500Y10517762D01*
X9225500Y10553401D02*
Y10862020D01*
X9197500Y9972500D02*
Y10517762D01*
X8992000Y10851067D02*
X9180500Y10662567D01*
Y10534762D02*
Y10662567D01*
X9125000Y9900000D02*
X9197500Y9972500D01*
X8992000Y10851067D02*
Y11250000D01*
X9899801Y9275199D02*
X9901265Y9276662D01*
Y9326265D02*
X10425000Y9850000D01*
X9901265Y9276662D02*
Y9326265D01*
X10425000Y9850000D02*
Y10625000D01*
X10560000Y9782721D02*
Y9860000D01*
X10150000Y9372721D02*
X10560000Y9782721D01*
X10150000Y9275000D02*
Y9372721D01*
X10560000Y9860000D02*
X10800000Y10100000D01*
X10025000Y9375000D02*
X10470000Y9820000D01*
X10075000Y9361360D02*
X10515000Y9801360D01*
Y10069000D01*
X10470000Y9820000D02*
Y10278000D01*
X10075000Y9289888D02*
Y9361360D01*
X10515000Y10069000D02*
X10800000Y10354000D01*
X10470000Y10278000D02*
X10800000Y10608000D01*
X10425000Y10625000D02*
X10662000Y10862000D01*
X10800000D01*
X9900000Y9025000D02*
X10150000Y9275000D01*
X9833610Y9108610D02*
X9893722D01*
X9825000Y9100000D02*
X9833610Y9108610D01*
X10025000Y9304938D02*
Y9375000D01*
X9828541Y9196918D02*
X9916980D01*
X10025000Y9304938D01*
X9893722Y9108610D02*
X10075000Y9289888D01*
X9825230Y9200230D02*
X9828541Y9196918D01*
X10000000Y9890000D02*
Y10300000D01*
X9900000Y9800000D02*
X9910000D01*
X10000000Y9890000D01*
X8950000Y8425000D02*
Y8797823D01*
X8935000Y8812823D02*
X8950000Y8797823D01*
X8935000Y8812823D02*
Y8825000D01*
X8850000Y8375000D02*
Y8675000D01*
X8775000Y8737823D02*
X8800000Y8762823D01*
X8775000Y8450000D02*
Y8737823D01*
X8800000Y8762823D02*
Y8775000D01*
X8675000Y8737823D02*
X8700000Y8762823D01*
X8675000Y8375000D02*
Y8737823D01*
X8700000Y8762823D02*
Y8775000D01*
X8125000Y8305000D02*
Y8315000D01*
X8375000Y8565000D01*
Y8575000D01*
X8000000Y8305000D02*
X8375000Y8680000D01*
X8003861Y8372500D02*
X8300000Y8668640D01*
Y8875000D01*
X8375000Y8680000D02*
Y8800000D01*
X7942500Y8372500D02*
X8003861D01*
X7875000Y8305000D02*
X7942500Y8372500D01*
X8750000Y10225000D02*
X8825000Y10300000D01*
X8875000D01*
X8950000Y10375000D01*
X8770000Y10010000D02*
X8990000Y10230000D01*
X7471790Y9128210D02*
X7561789D01*
X7100000Y9500000D02*
X7471790Y9128210D01*
X7100000Y9500000D02*
Y9625000D01*
X7200000Y9725000D01*
X7240000Y9490000D02*
X7548962D01*
X7200000Y9725000D02*
Y10075000D01*
X8286412Y10200000D02*
X8297823D01*
X8275000D02*
X8286412D01*
X8297823D02*
X8399213Y10098610D01*
X8461390D01*
X8470000Y10090000D01*
X8292500D02*
X8300000D01*
X8380000Y10010000D01*
X7927500Y9987500D02*
X8338860D01*
X8376360Y9950000D01*
X7880000Y9940000D02*
X7927500Y9987500D01*
X8737823Y9950000D02*
X8757823Y9930000D01*
X8376360Y9950000D02*
X8737823D01*
X8757823Y9930000D02*
X8770000D01*
X8380000Y10010000D02*
X8770000D01*
X7548962Y9490000D02*
X7880000Y9821038D01*
Y9940000D01*
D29*
X9270000Y9750000D02*
X9427500Y9907500D01*
X9317500Y10300000D02*
X9409926D01*
X9427500Y9907500D02*
Y10282426D01*
X9409926Y10300000D02*
X9427500Y10282426D01*
X9270000Y9750000D02*
X9750000D01*
X9870000Y9870000D02*
Y10290000D01*
X9750000Y9750000D02*
X9870000Y9870000D01*
X8030000Y9920000D02*
X8320000D01*
X8410000Y9650000D02*
X8510000Y9750000D01*
X8410000Y9650000D02*
Y9830000D01*
X8260000Y9500000D02*
X8410000Y9650000D01*
X8320000Y9920000D02*
X8410000Y9830000D01*
X8510000Y9750000D02*
X9270000D01*
X8260000Y9155000D02*
Y9500000D01*
D31*
X8510000Y9580000D02*
X8590000Y9660000D01*
X8510000Y8920000D02*
Y9580000D01*
X9860000Y9690000D02*
X10030000D01*
X9700000Y9530000D02*
X9860000Y9690000D01*
X10030000D02*
X10280000Y9940000D01*
Y10120000D01*
X9700000Y8590000D02*
Y9530000D01*
X9350000Y8240000D02*
X9700000Y8590000D01*
X8675000Y8200000D02*
X8971079D01*
X8200000D02*
X8675000D01*
X8507312Y8367688D02*
X8675000Y8200000D01*
X7800000D02*
X8200000D01*
X7450000Y8550000D02*
X7800000Y8200000D01*
X7300000D02*
X7800000D01*
X8971079D02*
X9196079Y7975000D01*
X8507312Y8367688D02*
Y8917583D01*
X9196079Y7975000D02*
X9350000D01*
X7275000Y8225000D02*
X7300000Y8200000D01*
X9350000Y7975000D02*
Y8240000D01*
X7450000Y8550000D02*
Y9016421D01*
X9350000Y7975000D02*
X9425000Y7900000D01*
X7450000Y9016421D02*
X7561789Y9128210D01*
X7668210D01*
X10110000Y10290000D02*
X10280000Y10120000D01*
X8160000Y9500000D02*
Y9730000D01*
X8015000Y9355000D02*
X8160000Y9500000D01*
X7895000Y9355000D02*
X8015000D01*
X7668210Y9128210D02*
X7895000Y9355000D01*
D33*
X9005000Y10465000D02*
X9130000Y10340000D01*
X8845000Y10465000D02*
X9005000D01*
X8470000Y10090000D02*
X8845000Y10465000D01*
D35*
X8685000Y10565000D02*
D03*
D36*
X8035000D02*
D03*
X8685000Y11015000D02*
D03*
X8035000D02*
D03*
D37*
X9613500Y10124100D02*
D03*
Y9920900D02*
D03*
X10121500Y10022500D02*
D03*
D38*
X9246000Y11250000D02*
D03*
X9500000D02*
D03*
X9754000D02*
D03*
X9846000Y10600000D02*
D03*
X9592000D02*
D03*
X9338000D02*
D03*
X10800000Y10354000D02*
D03*
Y10608000D02*
D03*
Y10862000D02*
D03*
X10797500Y8265000D02*
D03*
Y8011000D02*
D03*
Y7757000D02*
D03*
X7065000Y8490500D02*
D03*
Y8744500D02*
D03*
Y8998500D02*
D03*
X7692000Y7925000D02*
D03*
X7946000D02*
D03*
X8200000D02*
D03*
X7692000Y7600000D02*
D03*
X7946000D02*
D03*
X8200000D02*
D03*
D39*
X8992000Y11250000D02*
D03*
X10100000Y10600000D02*
D03*
X7438000Y7925000D02*
D03*
Y7600000D02*
D03*
D40*
X10800000Y10100000D02*
D03*
X10797500Y8519000D02*
D03*
X7065000Y8236500D02*
D03*
D41*
X10610000Y9150000D02*
D03*
Y9650000D02*
D03*
D42*
X10567500Y8885000D02*
D03*
X6955000Y7512500D02*
D03*
X6980000Y7912500D02*
D03*
X7487500Y10655000D02*
D03*
X7785000Y10402500D02*
D03*
X6987500D02*
D03*
X7010000Y10865000D02*
D03*
X7707710Y11202034D02*
D03*
X7080000Y11187500D02*
D03*
X9510000Y8115000D02*
D03*
X10430000Y9085000D02*
D03*
X9955000Y9517500D02*
D03*
X10315000Y10327500D02*
D03*
X10557500Y11242500D02*
D03*
X10110000Y11265000D02*
D03*
X10305000Y11010000D02*
D03*
X9947500Y10837500D02*
D03*
X9122500Y10947500D02*
D03*
X9375000Y10922500D02*
D03*
X8847500Y10837500D02*
D03*
X7762500Y10902500D02*
D03*
X7202500Y10595000D02*
D03*
X7590000Y10242500D02*
D03*
X7087500Y9295000D02*
D03*
X9185000Y8310000D02*
D03*
X10452500Y7512500D02*
D03*
X9477860Y7613086D02*
D03*
X8470000Y7630000D02*
D03*
X7065000Y7672500D02*
D03*
D43*
X10030000Y8690000D02*
D03*
X10152500D02*
D03*
X10302500Y8160000D02*
D03*
X10215000Y8345000D02*
D03*
X10080000Y8340000D02*
D03*
X7605000Y9852500D02*
D03*
X7610000Y9725000D02*
D03*
X7470000Y9722500D02*
D03*
X7472500Y9860000D02*
D03*
X8337500Y9402500D02*
D03*
X9675000Y10925000D02*
D03*
X9475000Y9825000D02*
D03*
X9317500Y10300000D02*
D03*
X9130000Y10340000D02*
D03*
X9250000Y9900000D02*
D03*
X9125000D02*
D03*
X9900000Y9025000D02*
D03*
X9825000Y9100000D02*
D03*
X9899801Y9275199D02*
D03*
X9825230Y9200230D02*
D03*
X10000000Y10300000D02*
D03*
X9900000Y9800000D02*
D03*
X8935000Y8825000D02*
D03*
X8950000Y8425000D02*
D03*
X8850000Y8675000D02*
D03*
Y8375000D02*
D03*
X8800000Y8775000D02*
D03*
X8775000Y8450000D02*
D03*
X8675000Y8375000D02*
D03*
X8700000Y8775000D02*
D03*
X8375000Y8575000D02*
D03*
Y8800000D02*
D03*
X8125000Y8305000D02*
D03*
X8142950Y8607049D02*
D03*
X8000000Y8305000D02*
D03*
X8300000Y8875000D02*
D03*
X7875000Y8305000D02*
D03*
X8971079Y8200000D02*
D03*
X8200000D02*
D03*
X8507312Y8917583D02*
D03*
X7275000Y8225000D02*
D03*
X7300000Y9025000D02*
D03*
X8950000Y10375000D02*
D03*
X8990000Y10230000D02*
D03*
X8750000Y10225000D02*
D03*
X7240000Y9490000D02*
D03*
X7200000Y10075000D02*
D03*
X7561789Y9128210D02*
D03*
X7575000Y8750000D02*
D03*
Y8950000D02*
D03*
X7900000Y9475000D02*
D03*
X9600000Y8500000D02*
D03*
X9275000Y8475000D02*
D03*
X8175000Y8825000D02*
D03*
X9425000Y7900000D02*
D03*
X8286412Y10200000D02*
D03*
X8292500Y10090000D02*
D03*
X8375000Y10300000D02*
D03*
X10563195Y7650015D02*
D03*
X10436250Y9533750D02*
D03*
X10110000Y10290000D02*
D03*
X8470000Y10090000D02*
D03*
X8030000Y9920000D02*
D03*
X8770000Y9930000D02*
D03*
X9780000Y9610000D02*
D03*
X9575000Y8625000D02*
D03*
X8590000Y9660000D02*
D03*
X8160000Y9730000D02*
D03*
X7650000Y9400000D02*
D03*
X7775000Y9475000D02*
D03*
X6975000Y9575000D02*
D03*
X7050000Y10025000D02*
D03*
X8850000Y9990000D02*
D03*
X9730000Y10283911D02*
D03*
X10350000Y8783911D02*
D03*
X9325000Y8625000D02*
D03*
X8325000Y9025000D02*
D03*
X8525000Y9825000D02*
D03*
X7750000Y10125000D02*
D03*
X7175000Y9575000D02*
D03*
X9870000Y10290000D02*
D03*
X8260000Y9155000D02*
D03*
D44*
X9235000Y9055000D02*
D03*
X9125000D02*
D03*
X9015000D02*
D03*
X8905000D02*
D03*
X8795000D02*
D03*
X9235000Y9165000D02*
D03*
X9125000D02*
D03*
X9015000D02*
D03*
X8905000D02*
D03*
X8795000D02*
D03*
X9235000Y9275000D02*
D03*
X9125000D02*
D03*
X9015000D02*
D03*
X8905000D02*
D03*
X8795000D02*
D03*
X9235000Y9385000D02*
D03*
X9125000D02*
D03*
X9015000D02*
D03*
X8905000D02*
D03*
X8795000D02*
D03*
X9235000Y9495000D02*
D03*
X9125000D02*
D03*
X9015000D02*
D03*
X8905000D02*
D03*
X8795000D02*
D03*
%TF.MD5,caf6910ee0462d0c0e28b29931788dc6*%
M02*
