%TF.GenerationSoftware,Altium Limited,Altium Designer,24.1.2 (44)*%
G04 Layer_Physical_Order=1*
G04 Layer_Color=255*
%FSLAX45Y45*%
%MOMM*%
%TF.SameCoordinates,9F746DA8-F38A-4014-887F-1EC8760E2830*%
%TF.FilePolarity,Positive*%
%TF.FileFunction,Copper,L1,Top,Signal*%
%TF.Part,Single*%
G01*
G75*
%TA.AperFunction,NonConductor*%
%ADD10C,0.50000*%
%TA.AperFunction,SMDPad,CuDef*%
%ADD11R,5.60000X5.60000*%
%ADD12O,0.25000X0.80000*%
%ADD13O,0.80000X0.25000*%
%ADD14R,0.79000X0.28000*%
%ADD15R,0.28000X0.79000*%
%ADD16R,3.18213X1.50000*%
%ADD17R,1.00000X1.50000*%
G04:AMPARAMS|DCode=18|XSize=0.6mm|YSize=0.7mm|CornerRadius=0.075mm|HoleSize=0mm|Usage=FLASHONLY|Rotation=90.000|XOffset=0mm|YOffset=0mm|HoleType=Round|Shape=RoundedRectangle|*
%AMROUNDEDRECTD18*
21,1,0.60000,0.55000,0,0,90.0*
21,1,0.45000,0.70000,0,0,90.0*
1,1,0.15000,0.27500,0.22500*
1,1,0.15000,0.27500,-0.22500*
1,1,0.15000,-0.27500,-0.22500*
1,1,0.15000,-0.27500,0.22500*
%
%ADD18ROUNDEDRECTD18*%
%TA.AperFunction,BGAPad,CuDef*%
%ADD19C,0.86300*%
%TA.AperFunction,SMDPad,CuDef*%
G04:AMPARAMS|DCode=20|XSize=0.6mm|YSize=0.7mm|CornerRadius=0.075mm|HoleSize=0mm|Usage=FLASHONLY|Rotation=180.000|XOffset=0mm|YOffset=0mm|HoleType=Round|Shape=RoundedRectangle|*
%AMROUNDEDRECTD20*
21,1,0.60000,0.55000,0,0,180.0*
21,1,0.45000,0.70000,0,0,180.0*
1,1,0.15000,-0.22500,0.27500*
1,1,0.15000,0.22500,0.27500*
1,1,0.15000,0.22500,-0.27500*
1,1,0.15000,-0.22500,-0.27500*
%
%ADD20ROUNDEDRECTD20*%
G04:AMPARAMS|DCode=21|XSize=1.3mm|YSize=1.1mm|CornerRadius=0.055mm|HoleSize=0mm|Usage=FLASHONLY|Rotation=0.000|XOffset=0mm|YOffset=0mm|HoleType=Round|Shape=RoundedRectangle|*
%AMROUNDEDRECTD21*
21,1,1.30000,0.99000,0,0,0.0*
21,1,1.19000,1.10000,0,0,0.0*
1,1,0.11000,0.59500,-0.49500*
1,1,0.11000,-0.59500,-0.49500*
1,1,0.11000,-0.59500,0.49500*
1,1,0.11000,0.59500,0.49500*
%
%ADD21ROUNDEDRECTD21*%
%TA.AperFunction,ConnectorPad*%
%ADD22R,1.90000X1.50000*%
%ADD23R,1.35000X0.40000*%
%TA.AperFunction,SMDPad,CuDef*%
G04:AMPARAMS|DCode=24|XSize=0.8mm|YSize=1mm|CornerRadius=0.1mm|HoleSize=0mm|Usage=FLASHONLY|Rotation=180.000|XOffset=0mm|YOffset=0mm|HoleType=Round|Shape=RoundedRectangle|*
%AMROUNDEDRECTD24*
21,1,0.80000,0.80000,0,0,180.0*
21,1,0.60000,1.00000,0,0,180.0*
1,1,0.20000,-0.30000,0.40000*
1,1,0.20000,0.30000,0.40000*
1,1,0.20000,0.30000,-0.40000*
1,1,0.20000,-0.30000,-0.40000*
%
%ADD24ROUNDEDRECTD24*%
G04:AMPARAMS|DCode=25|XSize=0.8mm|YSize=1mm|CornerRadius=0.1mm|HoleSize=0mm|Usage=FLASHONLY|Rotation=90.000|XOffset=0mm|YOffset=0mm|HoleType=Round|Shape=RoundedRectangle|*
%AMROUNDEDRECTD25*
21,1,0.80000,0.80000,0,0,90.0*
21,1,0.60000,1.00000,0,0,90.0*
1,1,0.20000,0.40000,0.30000*
1,1,0.20000,0.40000,-0.30000*
1,1,0.20000,-0.40000,-0.30000*
1,1,0.20000,-0.40000,0.30000*
%
%ADD25ROUNDEDRECTD25*%
G04:AMPARAMS|DCode=26|XSize=1.4mm|YSize=1.7mm|CornerRadius=0.175mm|HoleSize=0mm|Usage=FLASHONLY|Rotation=270.000|XOffset=0mm|YOffset=0mm|HoleType=Round|Shape=RoundedRectangle|*
%AMROUNDEDRECTD26*
21,1,1.40000,1.35000,0,0,270.0*
21,1,1.05000,1.70000,0,0,270.0*
1,1,0.35000,-0.67500,-0.52500*
1,1,0.35000,-0.67500,0.52500*
1,1,0.35000,0.67500,0.52500*
1,1,0.35000,0.67500,-0.52500*
%
%ADD26ROUNDEDRECTD26*%
G04:AMPARAMS|DCode=27|XSize=1.4mm|YSize=1.7mm|CornerRadius=0.175mm|HoleSize=0mm|Usage=FLASHONLY|Rotation=180.000|XOffset=0mm|YOffset=0mm|HoleType=Round|Shape=RoundedRectangle|*
%AMROUNDEDRECTD27*
21,1,1.40000,1.35000,0,0,180.0*
21,1,1.05000,1.70000,0,0,180.0*
1,1,0.35000,-0.52500,0.67500*
1,1,0.35000,0.52500,0.67500*
1,1,0.35000,0.52500,-0.67500*
1,1,0.35000,-0.52500,-0.67500*
%
%ADD27ROUNDEDRECTD27*%
%TA.AperFunction,Conductor*%
%ADD28C,0.25000*%
%ADD29C,0.30000*%
%ADD30C,0.26017*%
%ADD31C,1.00000*%
%ADD32C,0.40000*%
%ADD33C,0.70000*%
%ADD34C,0.50000*%
%TA.AperFunction,ComponentPad*%
%ADD35R,1.49800X1.49800*%
%ADD36C,1.49800*%
%ADD37C,1.06700*%
%ADD38C,1.60000*%
G04:AMPARAMS|DCode=39|XSize=1.6mm|YSize=1.6mm|CornerRadius=0.4mm|HoleSize=0mm|Usage=FLASHONLY|Rotation=0.000|XOffset=0mm|YOffset=0mm|HoleType=Round|Shape=RoundedRectangle|*
%AMROUNDEDRECTD39*
21,1,1.60000,0.80000,0,0,0.0*
21,1,0.80000,1.60000,0,0,0.0*
1,1,0.80000,0.40000,-0.40000*
1,1,0.80000,-0.40000,-0.40000*
1,1,0.80000,-0.40000,0.40000*
1,1,0.80000,0.40000,0.40000*
%
%ADD39ROUNDEDRECTD39*%
G04:AMPARAMS|DCode=40|XSize=1.6mm|YSize=1.6mm|CornerRadius=0.4mm|HoleSize=0mm|Usage=FLASHONLY|Rotation=90.000|XOffset=0mm|YOffset=0mm|HoleType=Round|Shape=RoundedRectangle|*
%AMROUNDEDRECTD40*
21,1,1.60000,0.80000,0,0,90.0*
21,1,0.80000,1.60000,0,0,90.0*
1,1,0.80000,0.40000,0.40000*
1,1,0.80000,0.40000,-0.40000*
1,1,0.80000,-0.40000,-0.40000*
1,1,0.80000,-0.40000,0.40000*
%
%ADD40ROUNDEDRECTD40*%
%ADD41C,1.45000*%
%TA.AperFunction,ViaPad*%
%ADD42C,0.80000*%
%ADD43C,0.70000*%
%ADD44C,0.50000*%
G36*
X10925000Y9760001D02*
X10834997D01*
Y9809998D01*
X10925000Y9810000D01*
Y9760001D01*
D02*
G37*
G36*
X7675000Y9660000D02*
X7405000D01*
Y9927500D01*
X7675000D01*
Y9660000D01*
D02*
G37*
G36*
X10975000Y9630000D02*
X10785000D01*
Y9760000D01*
X10975000D01*
Y9630000D01*
D02*
G37*
G36*
Y9040000D02*
X10785000D01*
Y9170000D01*
X10975000D01*
Y9040000D01*
D02*
G37*
G36*
X10925003Y8990002D02*
X10835000Y8990000D01*
Y9039999D01*
X10925003D01*
Y8990002D01*
D02*
G37*
G36*
X10683750Y9289013D02*
Y9251250D01*
X10680000Y9247500D01*
X10322500D01*
X10280000Y9205000D01*
Y8932500D01*
X10267500Y8920000D01*
X10172500D01*
X10155000Y8937500D01*
Y9220000D01*
X10230000Y9295000D01*
X10677763D01*
X10683750Y9289013D01*
D02*
G37*
G36*
X10130000Y9197500D02*
Y8925000D01*
X10115000Y8910000D01*
X10010000D01*
X9955000Y8855000D01*
Y8697500D01*
X9915000Y8657500D01*
Y8417500D01*
X9790000Y8292500D01*
Y8140000D01*
X9757500Y8107500D01*
X9630000D01*
X9605000Y8132500D01*
Y8307500D01*
X9735000Y8437500D01*
Y8662500D01*
X9825000Y8752500D01*
Y8917500D01*
X9875000Y8967500D01*
X9955000D01*
X9997500Y9010000D01*
Y9195000D01*
X10017500Y9215000D01*
X10112500D01*
X10130000Y9197500D01*
D02*
G37*
G36*
X10275000Y8850000D02*
Y8750000D01*
X10250000Y8725000D01*
X10212500D01*
X10200000Y8712500D01*
Y8670000D01*
X10150000Y8620000D01*
Y8500000D01*
X10270000Y8380000D01*
X10270000Y8270000D01*
X10410000Y8130000D01*
Y8125000D01*
X10525000D01*
X10550000Y8100000D01*
Y7950000D01*
X10525000Y7925000D01*
X10350000D01*
X10300000Y7975000D01*
Y8025000D01*
X10225000Y8100000D01*
X10100000D01*
X10050000Y8150000D01*
Y8290000D01*
X9950000Y8390000D01*
Y8600000D01*
X9980000Y8630000D01*
Y8730000D01*
X10000000Y8750000D01*
Y8850000D01*
X10025000Y8875000D01*
X10250000D01*
X10275000Y8850000D01*
D02*
G37*
G36*
X10020000Y8277500D02*
Y7980000D01*
X10102500Y7897500D01*
X10492500D01*
X10535000Y7855000D01*
Y7735000D01*
X10490000Y7690000D01*
X10222500D01*
X10140000Y7607500D01*
Y7487500D01*
X10087500Y7435000D01*
X9755000D01*
X9720000Y7470000D01*
Y7605000D01*
X9827500Y7712500D01*
Y8267500D01*
X9875000Y8315000D01*
X9982500D01*
X10020000Y8277500D01*
D02*
G37*
D10*
X10860000Y9760000D02*
G03*
X10860000Y9760000I-25000J0D01*
G01*
X10950000D02*
G03*
X10950000Y9760000I-25000J0D01*
G01*
X10860000Y9040000D02*
G03*
X10860000Y9040000I-25000J0D01*
G01*
X10950000D02*
G03*
X10950000Y9040000I-25000J0D01*
G01*
D11*
X9015000Y9275000D02*
D03*
D12*
X8740000Y9615000D02*
D03*
X8790000D02*
D03*
X8840000D02*
D03*
X8890000D02*
D03*
X8940000D02*
D03*
X8990000D02*
D03*
X9040000D02*
D03*
X9090000D02*
D03*
X9140000D02*
D03*
X9190000D02*
D03*
X9240000D02*
D03*
X9290000D02*
D03*
Y8935000D02*
D03*
X9240000D02*
D03*
X9190000D02*
D03*
X9140000D02*
D03*
X9090000D02*
D03*
X9040000D02*
D03*
X8990000D02*
D03*
X8940000D02*
D03*
X8890000D02*
D03*
X8840000D02*
D03*
X8790000D02*
D03*
X8740000D02*
D03*
D13*
X9355000Y9550000D02*
D03*
Y9500000D02*
D03*
Y9450000D02*
D03*
Y9400000D02*
D03*
Y9350000D02*
D03*
Y9300000D02*
D03*
Y9250000D02*
D03*
Y9200000D02*
D03*
Y9150000D02*
D03*
Y9100000D02*
D03*
Y9050000D02*
D03*
Y9000000D02*
D03*
X8675000D02*
D03*
Y9050000D02*
D03*
Y9100000D02*
D03*
Y9150000D02*
D03*
Y9200000D02*
D03*
Y9250000D02*
D03*
Y9300000D02*
D03*
Y9350000D02*
D03*
Y9400000D02*
D03*
Y9450000D02*
D03*
Y9500000D02*
D03*
Y9550000D02*
D03*
D14*
X7737000Y9917000D02*
D03*
Y9867000D02*
D03*
Y9817000D02*
D03*
Y9767000D02*
D03*
Y9717000D02*
D03*
Y9667000D02*
D03*
X7343000D02*
D03*
Y9717000D02*
D03*
Y9767000D02*
D03*
Y9817000D02*
D03*
Y9867000D02*
D03*
Y9917000D02*
D03*
D15*
X7665000Y9595000D02*
D03*
X7615000D02*
D03*
X7565000D02*
D03*
X7515000D02*
D03*
X7465000D02*
D03*
X7415000D02*
D03*
Y9989000D02*
D03*
X7465000D02*
D03*
X7515000D02*
D03*
X7565000D02*
D03*
X7615000D02*
D03*
X7665000D02*
D03*
D16*
X9925000Y7545500D02*
D03*
D17*
X9696000Y8204500D02*
D03*
X9925000D02*
D03*
X10154000D02*
D03*
D18*
X7945000Y9715000D02*
D03*
Y9615000D02*
D03*
X9020000Y8700000D02*
D03*
Y8600000D02*
D03*
X9625000Y8750000D02*
D03*
Y8850000D02*
D03*
X8940000Y9885000D02*
D03*
Y9785000D02*
D03*
X10450000Y8685000D02*
D03*
Y8585000D02*
D03*
Y8425000D02*
D03*
Y8325000D02*
D03*
X9607500Y9612500D02*
D03*
Y9512500D02*
D03*
X8472500Y9065000D02*
D03*
Y9165000D02*
D03*
X8475000Y9550000D02*
D03*
Y9450000D02*
D03*
D19*
X9740500Y9959000D02*
D03*
X9867500D02*
D03*
X9994500D02*
D03*
X9740500Y10086000D02*
D03*
X9867500D02*
D03*
X9994500D02*
D03*
D20*
X8702500Y10100000D02*
D03*
X8602500D02*
D03*
X7980000Y9120000D02*
D03*
X8080000D02*
D03*
X8990000Y10100000D02*
D03*
X8890000D02*
D03*
X9207500Y10102500D02*
D03*
X9307500D02*
D03*
X8040000Y10120000D02*
D03*
X8140000D02*
D03*
X9525000Y9000000D02*
D03*
X9625000D02*
D03*
X8080000Y8950000D02*
D03*
X7980000D02*
D03*
X7720000D02*
D03*
X7820000D02*
D03*
X7145000Y9715000D02*
D03*
X7045000D02*
D03*
X8140000Y10300000D02*
D03*
X8040000D02*
D03*
X8740000Y9790000D02*
D03*
X8640000D02*
D03*
X9460000Y8760000D02*
D03*
X9360000D02*
D03*
X7145000Y9895000D02*
D03*
X7045000D02*
D03*
X7415000Y9405000D02*
D03*
X7515000D02*
D03*
D21*
X7750000Y8760000D02*
D03*
Y8570000D02*
D03*
X7980000Y8760000D02*
D03*
Y8570000D02*
D03*
D22*
X10880000Y9500000D02*
D03*
Y9300000D02*
D03*
D23*
X10610000Y9530000D02*
D03*
Y9465000D02*
D03*
Y9400000D02*
D03*
Y9335000D02*
D03*
Y9270000D02*
D03*
D24*
X10215000Y9145000D02*
D03*
X10065000D02*
D03*
D25*
X9190000Y8765000D02*
D03*
Y8615000D02*
D03*
X8175000Y9550000D02*
D03*
Y9400000D02*
D03*
X10062500Y8972500D02*
D03*
Y8822500D02*
D03*
X10217500Y8975000D02*
D03*
Y8825000D02*
D03*
D26*
X10420000Y7790700D02*
D03*
Y8019300D02*
D03*
D27*
X9825700Y8510000D02*
D03*
X10054300D02*
D03*
D28*
X7605000Y9852500D02*
X7665000Y9912500D01*
Y10014500D01*
X7422000Y9817000D02*
X7422500Y9817500D01*
X7343000Y9817000D02*
X7422000D01*
X9240000Y9500000D02*
X9355000D01*
X9235000Y9495000D02*
X9240000Y9500000D01*
X8740000Y9615000D02*
Y9785000D01*
X8702500Y9720000D02*
Y9747500D01*
X8685000Y9702500D02*
X8702500Y9720000D01*
X8740000Y9785000D02*
Y9790000D01*
X8702500Y9747500D02*
X8740000Y9785000D01*
X8602177Y9660000D02*
X8644677Y9702500D01*
X8685000D01*
X8590000Y9660000D02*
X8602177D01*
X9675000Y10925000D02*
X9754000Y11004000D01*
Y11250000D01*
X9560409Y9835050D02*
X9649060D01*
X9502959Y9892500D02*
X9560409Y9835050D01*
X9468640Y9818639D02*
X9475000Y9825000D01*
X9402500Y9818639D02*
X9468640D01*
X9240000Y9615000D02*
Y9656139D01*
X9728771Y9947271D02*
X9740500Y9959000D01*
X9649060Y9835050D02*
X9728771Y9914761D01*
X9190000Y9692500D02*
X9390000Y9892500D01*
X9728771Y9914761D02*
Y9947271D01*
X9390000Y9892500D02*
X9502959D01*
X9190000Y9615000D02*
Y9692500D01*
X9240000Y9656139D02*
X9402500Y9818639D01*
X9090000Y9701154D02*
X9097500Y9708654D01*
Y9749779D01*
X9140000Y9687515D02*
X9145000Y9692515D01*
X9172944Y9761584D02*
Y9822944D01*
X9145000Y9692515D02*
Y9733639D01*
X9172944Y9761584D01*
X9097500Y9749779D02*
X9125000Y9777279D01*
Y9900000D01*
X9140000Y9615000D02*
Y9687515D01*
X9130000Y10340000D02*
X9307500Y10162500D01*
X9172944Y9822944D02*
X9250000Y9900000D01*
X9090000Y9615000D02*
Y9701154D01*
X8995000Y9733433D02*
X9007500Y9745933D01*
X9040000Y9714793D02*
X9052500Y9727293D01*
Y9947500D01*
X9185000Y10080000D01*
X8995000Y9733432D02*
Y9733433D01*
X9007500Y9745933D02*
Y9977500D01*
X9190000Y10080000D02*
X9207500Y10097500D01*
X9185000Y10080000D02*
X9190000D01*
X9040000Y9615000D02*
Y9714793D01*
X8990000Y9995000D02*
X9007500Y9977500D01*
X8990000Y9728431D02*
X8995000Y9733432D01*
X8990000Y9615000D02*
Y9728431D01*
X9207500Y10097500D02*
Y10107500D01*
X9355000Y9150000D02*
X9584606D01*
X9709606Y9025000D02*
X9900000D01*
X9584606Y9150000D02*
X9709606Y9025000D01*
X9730000Y9200000D02*
X9825000Y9105000D01*
Y9100000D02*
Y9105000D01*
X9814801Y9300000D02*
X9830992Y9283809D01*
X9891191D01*
X9899801Y9275199D01*
X9355000Y9300000D02*
X9814801D01*
X9772470Y9250000D02*
X9822240Y9200230D01*
X9825230D01*
X9355000Y9450000D02*
X9777500D01*
X9994500Y9667000D02*
Y9959000D01*
X9777500Y9450000D02*
X9994500Y9667000D01*
X9355000Y9250000D02*
X9772470D01*
X9355000Y9200000D02*
X9730000D01*
X9846000Y10454000D02*
X10000000Y10300000D01*
X9850323Y9762500D02*
X9887823Y9800000D01*
X9900000D01*
X9846000Y10454000D02*
Y10600000D01*
X9575000Y8627530D02*
X9625000Y8677530D01*
X9575000Y8625000D02*
Y8627530D01*
X9625000Y8677530D02*
Y8750000D01*
Y8850000D02*
Y9000000D01*
X9480000Y9050000D02*
X9525000Y9005000D01*
Y9000000D02*
Y9005000D01*
X9355000Y9050000D02*
X9480000D01*
X8845000Y8851360D02*
X8867500Y8828860D01*
X8840000Y8871139D02*
Y8935000D01*
X8845000Y8851360D02*
Y8866139D01*
X8890000Y8870000D02*
X8935000Y8825000D01*
X8867500Y8704677D02*
Y8828860D01*
X8840000Y8871139D02*
X8845000Y8866139D01*
X8890000Y8870000D02*
Y8935000D01*
X8200000Y7600000D02*
X8225017D01*
X8950000Y8324983D01*
Y8425000D01*
X8850000Y8575000D02*
X8937500Y8662500D01*
X8982500D01*
X8750000Y8575000D02*
X8850000D01*
Y8687177D02*
X8867500Y8704677D01*
X8850000Y8675000D02*
Y8687177D01*
Y8288622D02*
Y8375000D01*
X8283878Y7722500D02*
X8850000Y8288622D01*
X8163402Y7722500D02*
X8283878D01*
X8063500Y7622599D02*
X8163402Y7722500D01*
X7968599Y7622599D02*
X8063500D01*
X8126122Y7812500D02*
X8246599D01*
X7732901Y7800000D02*
X8113622D01*
X8265238Y7767500D02*
X8375000Y7877262D01*
X7936901Y7750000D02*
X8127262D01*
X8144762Y7767500D01*
X8265238D01*
X7946000Y7600000D02*
X7968599Y7622599D01*
X8246599Y7812500D02*
X8329327Y7895228D01*
X8113622Y7800000D02*
X8126122Y7812500D01*
X8329327Y7895228D02*
Y8029327D01*
X8375000Y7877262D02*
Y7975000D01*
X7809500Y7622599D02*
X7936901Y7750000D01*
X7579500Y7646599D02*
X7732901Y7800000D01*
X8375000Y7975000D02*
X8775000Y8375000D01*
Y8450000D01*
X8329327Y8029327D02*
X8675000Y8375000D01*
X8790000Y8857500D02*
X8800000Y8847500D01*
Y8775000D02*
Y8847500D01*
X8790000Y8857500D02*
Y8935000D01*
X8997500Y8682500D02*
X9015000Y8700000D01*
X8982500Y8662500D02*
X8997500Y8677500D01*
Y8682500D01*
X7692000Y7600000D02*
X7714599Y7622599D01*
X7809500D01*
X8740000Y8827177D02*
Y8935000D01*
X8700000Y8787177D02*
X8740000Y8827177D01*
X8700000Y8775000D02*
Y8787177D01*
X7579500Y7624000D02*
Y7646599D01*
X7555500Y7600000D02*
X7579500Y7624000D01*
X7438000Y7600000D02*
X7555500D01*
X9015000Y8700000D02*
X9020000D01*
X8547500Y8372500D02*
X8750000Y8575000D01*
X7437000Y8372500D02*
X8547500D01*
X7729085Y7998615D02*
Y8004085D01*
X7991390Y8266390D01*
Y8296390D01*
X8000000Y8305000D01*
X7692000Y7925000D02*
Y7961531D01*
X7729085Y7998615D01*
X7438000Y7925000D02*
X7479301Y7966301D01*
X7536301D02*
X7875000Y8305000D01*
X7479301Y7966301D02*
X7536301D01*
X7065000Y8744500D02*
X7437000Y8372500D01*
X8375000Y8575000D02*
X8387177D01*
X8407208Y8595031D01*
X8407499D01*
X8542468Y8730000D02*
X8542468D01*
X8407499Y8595031D02*
X8542468Y8730000D01*
X8375000Y8800000D02*
X8387177D01*
X8412177Y8775000D01*
X8523828D01*
X7946000Y8115360D02*
X8125000Y8294360D01*
Y8305000D01*
X7946000Y7925000D02*
Y8115360D01*
X8107823Y8570000D02*
X8142950Y8605128D01*
Y8607049D01*
X8542468Y8730000D02*
X8670000Y8857532D01*
X8400000Y8875000D02*
X8450000Y8825000D01*
X8300000Y8875000D02*
X8400000D01*
X9020000Y8253609D02*
Y8600000D01*
X8971079Y8200000D02*
Y8204687D01*
X9020000Y8253609D01*
X8200000Y7925000D02*
Y8200000D01*
X8670000Y8895000D02*
X8675000Y8900000D01*
X8670000Y8857532D02*
Y8895000D01*
X8523828Y8775000D02*
X8625000Y8876172D01*
Y8958860D01*
X8450000Y8825000D02*
X8510189D01*
X8510000Y8920270D02*
Y9027500D01*
X8574812Y8889623D02*
Y8945409D01*
X8510189Y8825000D02*
X8574812Y8889623D01*
X8557500Y8962721D02*
X8574812Y8945409D01*
X8557500Y8962721D02*
Y9037279D01*
X8620221Y9100000D02*
X8675000D01*
X8507312Y8917583D02*
X8510000Y8920270D01*
X8557500Y9037279D02*
X8620221Y9100000D01*
X8602500Y8981360D02*
Y9018639D01*
Y8981360D02*
X8625000Y8958860D01*
X8633861Y9050000D02*
X8675000D01*
X8602500Y9018639D02*
X8633861Y9050000D01*
X8675000Y8900000D02*
Y9000000D01*
X7076500Y8225000D02*
X7275000D01*
X7065000Y8236500D02*
X7076500Y8225000D01*
X7287823Y9025000D02*
X7300000D01*
X7065000Y8998500D02*
X7261323D01*
X7287823Y9025000D01*
X8617500Y10292500D02*
X8807500D01*
X8863640Y10300000D02*
X9015459D01*
X8537500Y10337500D02*
X8826140D01*
X8863640Y10300000D01*
X8807500Y10292500D02*
X8890000Y10210000D01*
X8470000Y10145000D02*
X8617500Y10292500D01*
X8360000Y10160000D02*
X8537500Y10337500D01*
X6907500Y8742901D02*
Y10057500D01*
Y8742901D02*
X7042401Y8608000D01*
Y8513099D02*
Y8608000D01*
Y8513099D02*
X7065000Y8490500D01*
X6907500Y10057500D02*
X7225000Y10375000D01*
X7500000D01*
X7825000Y10700000D02*
X8875000D01*
X7500000Y10375000D02*
X7825000Y10700000D01*
X8875000D02*
X8950000Y10625000D01*
Y10375000D02*
Y10625000D01*
X8990000Y10100001D02*
Y10230000D01*
X8709677Y10107177D02*
Y10172500D01*
X8750000Y10212823D01*
X8702500Y10100000D02*
X8709677Y10107177D01*
X8750000Y10212823D02*
Y10225000D01*
X9015459Y10300000D02*
X9103980Y10211480D01*
X8470000Y10090000D02*
Y10145000D01*
X8890000Y10100000D02*
Y10210000D01*
X7242500Y9492500D02*
Y9592000D01*
X7240000Y9490000D02*
X7242500Y9492500D01*
X7145000Y10020000D02*
X7200000Y10075000D01*
X7145000Y9895000D02*
Y10020000D01*
X7415000Y9274999D02*
X7561789Y9128210D01*
X7415000Y9274999D02*
Y9405000D01*
X7575000Y8750000D02*
X7740000D01*
X7750000Y8760000D01*
X7980000Y8570000D02*
X8107823D01*
X7575000Y8950000D02*
X7720000D01*
X7900000Y9475000D02*
Y9487177D01*
X7945000Y9532177D01*
X8000000Y9322500D02*
X8423817D01*
X7820000Y8950000D02*
Y9142500D01*
X8000000Y9322500D01*
X9460000Y8640000D02*
X9600000Y8500000D01*
X9460000Y8640000D02*
Y8760000D01*
X9224677Y8527207D02*
X9275000Y8476884D01*
Y8475000D02*
Y8476884D01*
X8166390Y8833610D02*
Y8858610D01*
Y8833610D02*
X8175000Y8825000D01*
X8080000Y8945000D02*
X8166390Y8858610D01*
X9197177Y8615000D02*
X9224677Y8587500D01*
X9190000Y8615000D02*
X9197177D01*
X9224677Y8527207D02*
Y8587500D01*
X8140000Y10120000D02*
X8206412D01*
X8286412Y10200000D01*
X8292500Y10082500D02*
Y10090000D01*
X8062500Y9852500D02*
X8292500Y10082500D01*
X10341500Y8975000D02*
X10797500Y8519000D01*
X10217500Y8975000D02*
X10341500D01*
X10685175Y7644675D02*
X10797500Y7757000D01*
X10568535Y7644675D02*
X10685175D01*
X10555355Y7657855D02*
X10568535Y7644675D01*
X10555355Y7657855D02*
X10791000Y7893500D01*
Y8004500D01*
X10797500Y8011000D01*
X10791330Y8265000D02*
X10797500D01*
X10711330Y8185000D02*
X10791330Y8265000D01*
X10590000Y8185000D02*
X10711330D01*
X10305000Y8825000D02*
X10427500Y8702500D01*
X10590000Y7840000D02*
Y8185000D01*
X10540700Y7790700D02*
X10590000Y7840000D01*
X10472500Y8302500D02*
X10590000Y8185000D01*
X10110000Y10201500D02*
Y10290000D01*
X9994500Y10086000D02*
X10110000Y10201500D01*
X10100000Y10400000D02*
X10200000Y10300000D01*
X9747500Y9762500D02*
X9850323D01*
X9307500Y10102500D02*
Y10162500D01*
X8990000Y10100000D02*
X8990000Y10100001D01*
X8470000Y10090000D02*
X8475000Y10095000D01*
X8597500D02*
X8602500Y10100000D01*
X8475000Y10095000D02*
X8597500D01*
X8360000Y10030000D02*
Y10160000D01*
X8137500Y9807500D02*
X8360000Y10030000D01*
X7943230Y9852500D02*
X8062500D01*
X7924590Y9807500D02*
X8137500D01*
X8770000Y9930000D02*
X8780000D01*
X8860000Y9850000D01*
X9778750Y9611250D02*
X9780000Y9610000D01*
X9607500Y9612500D02*
X9608750Y9611250D01*
X9778750D01*
X10455000Y8325000D02*
X10472500Y8307500D01*
Y8302500D02*
Y8307500D01*
X10450000Y8325000D02*
X10455000D01*
X10420000Y7790700D02*
X10540700D01*
X8495000Y9042500D02*
X8510000Y9027500D01*
X8472500Y9065000D02*
X8477500D01*
X8495000Y9047500D01*
Y9042500D02*
Y9047500D01*
X8590000Y9660000D02*
Y9660000D01*
X8475000Y9550000D02*
X8480000D01*
X8590000Y9660000D01*
X8160000Y9565000D02*
Y9730000D01*
Y9565000D02*
X8175000Y9550000D01*
X7945000Y9532177D02*
Y9615000D01*
X7517500Y9402500D02*
X7647500D01*
X7650000Y9400000D01*
X7515000Y9405000D02*
X7517500Y9402500D01*
X7766390Y9483610D02*
X7775000Y9475000D01*
X7750890Y9483610D02*
X7766390D01*
X7665000Y9569500D02*
Y9595000D01*
Y9569500D02*
X7750890Y9483610D01*
X6975000Y9575000D02*
X7045000Y9645000D01*
Y9715000D01*
X7047500Y10022500D02*
X7050000Y10025000D01*
X7047500Y9897500D02*
Y10022500D01*
X7045000Y9895000D02*
X7047500Y9897500D01*
X7045000Y9775000D02*
Y9895000D01*
X9103980Y10211021D02*
Y10211480D01*
Y10211021D02*
X9207500Y10107500D01*
X7737000Y9867000D02*
X7865090D01*
X7924590Y9807500D01*
X7737000Y9917000D02*
X7878730D01*
X7943230Y9852500D01*
X7317500Y9667000D02*
X7343000D01*
X7242500Y9592000D02*
X7317500Y9667000D01*
X8858610Y9961389D02*
Y9981390D01*
X8850000Y9990000D02*
X8858610Y9981390D01*
X8802500Y9747500D02*
Y9834068D01*
X8742500Y9857500D02*
X8779068D01*
X8802500Y9834068D01*
X8702500Y9897500D02*
X8742500Y9857500D01*
X8702500Y9897500D02*
Y10100000D01*
X8858610Y9961389D02*
X8935000Y9885000D01*
X8905000Y9385000D02*
X9015000Y9275000D01*
X8795000Y9495000D02*
X8905000Y9385000D01*
X8790000Y9500000D02*
X8795000Y9495000D01*
X8790000Y9500000D02*
Y9615000D01*
X8840000D02*
Y9710000D01*
X8802500Y9747500D02*
X8840000Y9710000D01*
X8860000Y9758431D02*
X8890000Y9728431D01*
X8860000Y9758431D02*
Y9850000D01*
X8890000Y9615000D02*
Y9728431D01*
X9735250Y10091250D02*
Y10278661D01*
Y10091250D02*
X9740500Y10086000D01*
X9730000Y10283911D02*
X9735250Y10278661D01*
X10217500Y8825000D02*
X10305000D01*
X10427500Y8702499D02*
Y8702500D01*
Y8702499D02*
X10445000Y8685000D01*
X10450000D01*
X9625000Y9000000D02*
X9625000Y9000000D01*
X9325000Y8637177D02*
X9360000Y8672177D01*
Y8760000D01*
X9325000Y8625000D02*
Y8637177D01*
X8424430Y9149431D02*
X8456930D01*
X8333610Y9033610D02*
Y9058611D01*
X8325000Y9025000D02*
X8333610Y9033610D01*
X8456930Y9149431D02*
X8472500Y9165000D01*
X8333610Y9058611D02*
X8424430Y9149431D01*
X8080000Y8945000D02*
Y8950000D01*
X8935000Y9885000D02*
X8940000D01*
X8572177Y9790000D02*
X8640000D01*
X8537177Y9825000D02*
X8572177Y9790000D01*
X8525000Y9825000D02*
X8537177D01*
X7665000Y10014500D02*
X7741390Y10090890D01*
Y10116390D01*
X7750000Y10125000D01*
X7292038Y9715500D02*
X7341500D01*
X7183610Y9607072D02*
X7292038Y9715500D01*
X7183610Y9583610D02*
Y9607072D01*
X7175000Y9575000D02*
X7183610Y9583610D01*
X7341500Y9715500D02*
X7343000Y9717000D01*
X7214000Y9715000D02*
X7266000Y9767000D01*
X7343000D01*
X7145000Y9715000D02*
X7214000D01*
X7045000D02*
Y9775000D01*
X7087000Y9817000D01*
X7343000D01*
X7258000Y9867000D02*
X7343000D01*
X7225000Y9900000D02*
X7258000Y9867000D01*
X7415000Y9405000D02*
Y9595000D01*
X7150000Y9900000D02*
X7225000D01*
X7145000Y9895000D02*
X7150000Y9900000D01*
X10450000Y8425000D02*
Y8585000D01*
X10100000Y10400000D02*
Y10600000D01*
X9500000Y10508000D02*
X9592000Y10600000D01*
X9500000Y10116191D02*
Y10508000D01*
X10085939Y9936651D02*
X10157061D01*
X10207350Y9986940D01*
Y10058060D01*
X10200000Y10065410D02*
X10207350Y10058060D01*
X10200000Y10065410D02*
Y10300000D01*
X9500000Y10116191D02*
X9586557Y10029635D01*
X9140000Y8870000D02*
Y8935000D01*
X9020000Y8750000D02*
X9140000Y8870000D01*
X9020000Y8700000D02*
Y8750000D01*
X9351716Y8845784D02*
X9380784D01*
X9442500Y8777500D02*
Y8784068D01*
X9290000Y8907500D02*
Y8935000D01*
Y8907500D02*
X9351716Y8845784D01*
X9380784D02*
X9442500Y8784068D01*
Y8777500D02*
X9460000Y8760000D01*
X9240000Y8885000D02*
X9360000Y8765000D01*
Y8760000D02*
Y8765000D01*
X9240000Y8885000D02*
Y8935000D01*
X9190000Y8765000D02*
Y8935000D01*
X10006060Y9947440D02*
X10075150D01*
X9994500Y9959000D02*
X10006060Y9947440D01*
X10075150D02*
X10085939Y9936651D01*
X9586557Y10029635D02*
X9669865D01*
X9740500Y9959000D01*
X10420000Y7790700D02*
X10420700Y7790000D01*
X7738000Y9716000D02*
X7944000D01*
X7737000Y9717000D02*
X7738000Y9716000D01*
X7944000D02*
X7945000Y9715000D01*
X8140000Y10300000D02*
X8420000D01*
X8685000Y10565000D01*
X8037500Y10302500D02*
Y10562500D01*
Y10302500D02*
X8040000Y10300000D01*
X8035000Y10565000D02*
X8037500Y10562500D01*
X8040000Y10120000D02*
Y10300000D01*
X8990000Y9995000D02*
Y10100000D01*
X9372500Y9725000D02*
X9710000D01*
X9867500Y9882500D02*
Y9959000D01*
X9710000Y9725000D02*
X9747500Y9762500D01*
X9747500D01*
X9867500Y9882500D01*
X9290000Y9642500D02*
X9372500Y9725000D01*
X9290000Y9615000D02*
Y9642500D01*
X9461250Y9550000D02*
X9523750Y9612500D01*
X9607500D01*
X8332500Y9159613D02*
X8405387Y9232500D01*
X8260000Y9155000D02*
X8264613Y9159613D01*
X8332500D01*
X8405387Y9232500D02*
X8461096D01*
X7760000Y8570000D02*
X7855000Y8665000D01*
X7750000Y8570000D02*
X7760000D01*
X7855000Y8665000D02*
Y8831250D01*
X7820000Y8866250D02*
X7855000Y8831250D01*
X7820000Y8866250D02*
Y8950000D01*
X7980000Y8760000D02*
Y8950000D01*
Y9120000D01*
X8080000D02*
Y9125000D01*
X8232500Y9277500D01*
X8442457D01*
X8490000Y9082500D02*
X8530000D01*
X8597500Y9150000D01*
X8675000D01*
X8472500Y9065000D02*
X8490000Y9082500D01*
X8512500Y9200000D02*
X8675000D01*
X8477500Y9165000D02*
X8512500Y9200000D01*
X8472500Y9165000D02*
X8477500D01*
X8478596Y9250000D02*
X8675000D01*
X8461096Y9232500D02*
X8478596Y9250000D01*
X8442457Y9277500D02*
X8464956Y9300000D01*
X8675000D01*
X8423817Y9322500D02*
X8451317Y9350000D01*
X8675000D01*
X9355000Y9550000D02*
X9461250D01*
X9595000Y9500000D02*
X9607500Y9512500D01*
X9355000Y9500000D02*
X9595000D01*
X8940000Y9615000D02*
Y9785000D01*
X8475000Y9550000D02*
X8675000D01*
X8475000Y9550000D02*
X8475000Y9550000D01*
D29*
X9317500Y10310824D02*
X9338000Y10331324D01*
X9317500Y10300000D02*
Y10310824D01*
X9338000Y10331324D02*
Y10600000D01*
X8035000Y10115000D02*
X8040000Y10120000D01*
X8035000Y9925000D02*
Y10115000D01*
X8030000Y9920000D02*
X8035000Y9925000D01*
X9868750Y10288750D02*
X9870000Y10290000D01*
X9867500Y10086000D02*
X9868750Y10087250D01*
Y10288750D01*
D30*
X9955479Y9351831D02*
X9962979Y9344332D01*
X9383314Y9398168D02*
X9974673D01*
X9982173Y9390669D01*
X9962979Y9344332D02*
X10540268D01*
X9982173Y9390669D02*
X10540268D01*
X9383314Y9351831D02*
X9955479D01*
X10540268Y9344332D02*
X10542608Y9341991D01*
X9355000Y9350000D02*
X9381483D01*
X9383314Y9351831D01*
X10542608Y9393009D02*
X10603009D01*
X10610000Y9400000D01*
X9355000Y9400000D02*
X9381483D01*
X10540268Y9390669D02*
X10542608Y9393009D01*
X9381483Y9400000D02*
X9383314Y9398168D01*
X10603009Y9341991D02*
X10610000Y9335000D01*
X10542608Y9341991D02*
X10603009D01*
D31*
X9505000Y7820000D02*
X9970000D01*
X9425000Y7900000D02*
X9505000Y7820000D01*
D32*
X10440000Y9530000D02*
X10610000D01*
X10436250Y9533750D02*
X10440000Y9530000D01*
D33*
X8470000Y9980000D02*
Y10090000D01*
X8220000Y9730000D02*
X8470000Y9980000D01*
X8160000Y9730000D02*
X8220000D01*
D34*
X8420000Y9400000D02*
X8470000Y9450000D01*
X8475000D01*
X8175000Y9400000D02*
X8420000D01*
D35*
X8685000Y10565000D02*
D03*
D36*
X8035000D02*
D03*
X8685000Y11015000D02*
D03*
X8035000D02*
D03*
D37*
X9613500Y10124100D02*
D03*
Y9920900D02*
D03*
X10121500Y10022500D02*
D03*
D38*
X9246000Y11250000D02*
D03*
X9500000D02*
D03*
X9754000D02*
D03*
X9846000Y10600000D02*
D03*
X9592000D02*
D03*
X9338000D02*
D03*
X10800000Y10354000D02*
D03*
Y10608000D02*
D03*
Y10862000D02*
D03*
X10797500Y8265000D02*
D03*
Y8011000D02*
D03*
Y7757000D02*
D03*
X7065000Y8490500D02*
D03*
Y8744500D02*
D03*
Y8998500D02*
D03*
X7692000Y7925000D02*
D03*
X7946000D02*
D03*
X8200000D02*
D03*
X7692000Y7600000D02*
D03*
X7946000D02*
D03*
X8200000D02*
D03*
D39*
X8992000Y11250000D02*
D03*
X10100000Y10600000D02*
D03*
X7438000Y7925000D02*
D03*
Y7600000D02*
D03*
D40*
X10800000Y10100000D02*
D03*
X10797500Y8519000D02*
D03*
X7065000Y8236500D02*
D03*
D41*
X10610000Y9150000D02*
D03*
Y9650000D02*
D03*
D42*
X10567500Y8885000D02*
D03*
X6955000Y7512500D02*
D03*
X6980000Y7912500D02*
D03*
X7487500Y10655000D02*
D03*
X7785000Y10402500D02*
D03*
X6987500D02*
D03*
X7010000Y10865000D02*
D03*
X7707710Y11202034D02*
D03*
X7080000Y11187500D02*
D03*
X9510000Y8115000D02*
D03*
X10430000Y9085000D02*
D03*
X9955000Y9517500D02*
D03*
X10315000Y10327500D02*
D03*
X10557500Y11242500D02*
D03*
X10110000Y11265000D02*
D03*
X10305000Y11010000D02*
D03*
X9947500Y10837500D02*
D03*
X9122500Y10947500D02*
D03*
X9375000Y10922500D02*
D03*
X8847500Y10837500D02*
D03*
X7762500Y10902500D02*
D03*
X7202500Y10595000D02*
D03*
X7590000Y10242500D02*
D03*
X7087500Y9295000D02*
D03*
X9185000Y8310000D02*
D03*
X10452500Y7512500D02*
D03*
X9477860Y7613086D02*
D03*
X8470000Y7630000D02*
D03*
X7065000Y7672500D02*
D03*
D43*
X10030000Y8690000D02*
D03*
X10152500D02*
D03*
X10302500Y8160000D02*
D03*
X10215000Y8345000D02*
D03*
X10080000Y8340000D02*
D03*
X7605000Y9852500D02*
D03*
X7610000Y9725000D02*
D03*
X7470000Y9722500D02*
D03*
X7472500Y9860000D02*
D03*
X8337500Y9402500D02*
D03*
X9675000Y10925000D02*
D03*
X9475000Y9825000D02*
D03*
X9317500Y10300000D02*
D03*
X9130000Y10340000D02*
D03*
X9250000Y9900000D02*
D03*
X9125000D02*
D03*
X9900000Y9025000D02*
D03*
X9825000Y9100000D02*
D03*
X9899801Y9275199D02*
D03*
X9825230Y9200230D02*
D03*
X10000000Y10300000D02*
D03*
X9900000Y9800000D02*
D03*
X8935000Y8825000D02*
D03*
X8950000Y8425000D02*
D03*
X8850000Y8675000D02*
D03*
Y8375000D02*
D03*
X8800000Y8775000D02*
D03*
X8775000Y8450000D02*
D03*
X8675000Y8375000D02*
D03*
X8700000Y8775000D02*
D03*
X8375000Y8575000D02*
D03*
Y8800000D02*
D03*
X8125000Y8305000D02*
D03*
X8142950Y8607049D02*
D03*
X8000000Y8305000D02*
D03*
X8300000Y8875000D02*
D03*
X7875000Y8305000D02*
D03*
X8971079Y8200000D02*
D03*
X8200000D02*
D03*
X8507312Y8917583D02*
D03*
X7275000Y8225000D02*
D03*
X7300000Y9025000D02*
D03*
X8950000Y10375000D02*
D03*
X8990000Y10230000D02*
D03*
X8750000Y10225000D02*
D03*
X7240000Y9490000D02*
D03*
X7200000Y10075000D02*
D03*
X7561789Y9128210D02*
D03*
X7575000Y8750000D02*
D03*
Y8950000D02*
D03*
X7900000Y9475000D02*
D03*
X9600000Y8500000D02*
D03*
X9275000Y8475000D02*
D03*
X8175000Y8825000D02*
D03*
X9425000Y7900000D02*
D03*
X8286412Y10200000D02*
D03*
X8292500Y10090000D02*
D03*
X8375000Y10300000D02*
D03*
X10563195Y7650015D02*
D03*
X10436250Y9533750D02*
D03*
X10110000Y10290000D02*
D03*
X8470000Y10090000D02*
D03*
X8030000Y9920000D02*
D03*
X8770000Y9930000D02*
D03*
X9780000Y9610000D02*
D03*
X9575000Y8625000D02*
D03*
X8590000Y9660000D02*
D03*
X8160000Y9730000D02*
D03*
X7650000Y9400000D02*
D03*
X7775000Y9475000D02*
D03*
X6975000Y9575000D02*
D03*
X7050000Y10025000D02*
D03*
X8850000Y9990000D02*
D03*
X9730000Y10283911D02*
D03*
X10350000Y8783911D02*
D03*
X9325000Y8625000D02*
D03*
X8325000Y9025000D02*
D03*
X8525000Y9825000D02*
D03*
X7750000Y10125000D02*
D03*
X7175000Y9575000D02*
D03*
X9870000Y10290000D02*
D03*
X8260000Y9155000D02*
D03*
D44*
X9235000Y9055000D02*
D03*
X9125000D02*
D03*
X9015000D02*
D03*
X8905000D02*
D03*
X8795000D02*
D03*
X9235000Y9165000D02*
D03*
X9125000D02*
D03*
X9015000D02*
D03*
X8905000D02*
D03*
X8795000D02*
D03*
X9235000Y9275000D02*
D03*
X9125000D02*
D03*
X9015000D02*
D03*
X8905000D02*
D03*
X8795000D02*
D03*
X9235000Y9385000D02*
D03*
X9125000D02*
D03*
X9015000D02*
D03*
X8905000D02*
D03*
X8795000D02*
D03*
X9235000Y9495000D02*
D03*
X9125000D02*
D03*
X9015000D02*
D03*
X8905000D02*
D03*
X8795000D02*
D03*
%TF.MD5,793baab0cc49678bdcc3d00e1b50065d*%
M02*
