%TF.GenerationSoftware,Altium Limited,Altium Designer,24.1.2 (44)*%
G04 Layer_Color=255*
%FSLAX45Y45*%
%MOMM*%
%TF.SameCoordinates,9F746DA8-F38A-4014-887F-1EC8760E2830*%
%TF.FilePolarity,Positive*%
%TF.FileFunction,Pads,Top*%
%TF.Part,Single*%
G01*
G75*
%TA.AperFunction,SMDPad,CuDef*%
%ADD11R,5.60000X5.60000*%
%ADD12O,0.25000X0.80000*%
%ADD13O,0.80000X0.25000*%
%ADD14R,0.79000X0.28000*%
%ADD15R,0.28000X0.79000*%
%ADD16R,3.18213X1.50000*%
%ADD17R,1.00000X1.50000*%
G04:AMPARAMS|DCode=18|XSize=0.6mm|YSize=0.7mm|CornerRadius=0.075mm|HoleSize=0mm|Usage=FLASHONLY|Rotation=90.000|XOffset=0mm|YOffset=0mm|HoleType=Round|Shape=RoundedRectangle|*
%AMROUNDEDRECTD18*
21,1,0.60000,0.55000,0,0,90.0*
21,1,0.45000,0.70000,0,0,90.0*
1,1,0.15000,0.27500,0.22500*
1,1,0.15000,0.27500,-0.22500*
1,1,0.15000,-0.27500,-0.22500*
1,1,0.15000,-0.27500,0.22500*
%
%ADD18ROUNDEDRECTD18*%
%TA.AperFunction,BGAPad,CuDef*%
%ADD19C,0.86300*%
%TA.AperFunction,SMDPad,CuDef*%
G04:AMPARAMS|DCode=20|XSize=0.6mm|YSize=0.7mm|CornerRadius=0.075mm|HoleSize=0mm|Usage=FLASHONLY|Rotation=180.000|XOffset=0mm|YOffset=0mm|HoleType=Round|Shape=RoundedRectangle|*
%AMROUNDEDRECTD20*
21,1,0.60000,0.55000,0,0,180.0*
21,1,0.45000,0.70000,0,0,180.0*
1,1,0.15000,-0.22500,0.27500*
1,1,0.15000,0.22500,0.27500*
1,1,0.15000,0.22500,-0.27500*
1,1,0.15000,-0.22500,-0.27500*
%
%ADD20ROUNDEDRECTD20*%
G04:AMPARAMS|DCode=21|XSize=1.3mm|YSize=1.1mm|CornerRadius=0.055mm|HoleSize=0mm|Usage=FLASHONLY|Rotation=0.000|XOffset=0mm|YOffset=0mm|HoleType=Round|Shape=RoundedRectangle|*
%AMROUNDEDRECTD21*
21,1,1.30000,0.99000,0,0,0.0*
21,1,1.19000,1.10000,0,0,0.0*
1,1,0.11000,0.59500,-0.49500*
1,1,0.11000,-0.59500,-0.49500*
1,1,0.11000,-0.59500,0.49500*
1,1,0.11000,0.59500,0.49500*
%
%ADD21ROUNDEDRECTD21*%
%TA.AperFunction,ConnectorPad*%
%ADD22R,1.90000X1.50000*%
%ADD23R,1.35000X0.40000*%
%TA.AperFunction,SMDPad,CuDef*%
G04:AMPARAMS|DCode=24|XSize=0.8mm|YSize=1mm|CornerRadius=0.1mm|HoleSize=0mm|Usage=FLASHONLY|Rotation=180.000|XOffset=0mm|YOffset=0mm|HoleType=Round|Shape=RoundedRectangle|*
%AMROUNDEDRECTD24*
21,1,0.80000,0.80000,0,0,180.0*
21,1,0.60000,1.00000,0,0,180.0*
1,1,0.20000,-0.30000,0.40000*
1,1,0.20000,0.30000,0.40000*
1,1,0.20000,0.30000,-0.40000*
1,1,0.20000,-0.30000,-0.40000*
%
%ADD24ROUNDEDRECTD24*%
G04:AMPARAMS|DCode=25|XSize=0.8mm|YSize=1mm|CornerRadius=0.1mm|HoleSize=0mm|Usage=FLASHONLY|Rotation=90.000|XOffset=0mm|YOffset=0mm|HoleType=Round|Shape=RoundedRectangle|*
%AMROUNDEDRECTD25*
21,1,0.80000,0.80000,0,0,90.0*
21,1,0.60000,1.00000,0,0,90.0*
1,1,0.20000,0.40000,0.30000*
1,1,0.20000,0.40000,-0.30000*
1,1,0.20000,-0.40000,-0.30000*
1,1,0.20000,-0.40000,0.30000*
%
%ADD25ROUNDEDRECTD25*%
G04:AMPARAMS|DCode=26|XSize=1.4mm|YSize=1.7mm|CornerRadius=0.175mm|HoleSize=0mm|Usage=FLASHONLY|Rotation=270.000|XOffset=0mm|YOffset=0mm|HoleType=Round|Shape=RoundedRectangle|*
%AMROUNDEDRECTD26*
21,1,1.40000,1.35000,0,0,270.0*
21,1,1.05000,1.70000,0,0,270.0*
1,1,0.35000,-0.67500,-0.52500*
1,1,0.35000,-0.67500,0.52500*
1,1,0.35000,0.67500,0.52500*
1,1,0.35000,0.67500,-0.52500*
%
%ADD26ROUNDEDRECTD26*%
G04:AMPARAMS|DCode=27|XSize=1.4mm|YSize=1.7mm|CornerRadius=0.175mm|HoleSize=0mm|Usage=FLASHONLY|Rotation=180.000|XOffset=0mm|YOffset=0mm|HoleType=Round|Shape=RoundedRectangle|*
%AMROUNDEDRECTD27*
21,1,1.40000,1.35000,0,0,180.0*
21,1,1.05000,1.70000,0,0,180.0*
1,1,0.35000,-0.52500,0.67500*
1,1,0.35000,0.52500,0.67500*
1,1,0.35000,0.52500,-0.67500*
1,1,0.35000,-0.52500,-0.67500*
%
%ADD27ROUNDEDRECTD27*%
%TA.AperFunction,ComponentPad*%
%ADD35R,1.49800X1.49800*%
%ADD36C,1.49800*%
%ADD37C,1.06700*%
%ADD38C,1.60000*%
G04:AMPARAMS|DCode=39|XSize=1.6mm|YSize=1.6mm|CornerRadius=0.4mm|HoleSize=0mm|Usage=FLASHONLY|Rotation=0.000|XOffset=0mm|YOffset=0mm|HoleType=Round|Shape=RoundedRectangle|*
%AMROUNDEDRECTD39*
21,1,1.60000,0.80000,0,0,0.0*
21,1,0.80000,1.60000,0,0,0.0*
1,1,0.80000,0.40000,-0.40000*
1,1,0.80000,-0.40000,-0.40000*
1,1,0.80000,-0.40000,0.40000*
1,1,0.80000,0.40000,0.40000*
%
%ADD39ROUNDEDRECTD39*%
G04:AMPARAMS|DCode=40|XSize=1.6mm|YSize=1.6mm|CornerRadius=0.4mm|HoleSize=0mm|Usage=FLASHONLY|Rotation=90.000|XOffset=0mm|YOffset=0mm|HoleType=Round|Shape=RoundedRectangle|*
%AMROUNDEDRECTD40*
21,1,1.60000,0.80000,0,0,90.0*
21,1,0.80000,1.60000,0,0,90.0*
1,1,0.80000,0.40000,0.40000*
1,1,0.80000,0.40000,-0.40000*
1,1,0.80000,-0.40000,-0.40000*
1,1,0.80000,-0.40000,0.40000*
%
%ADD40ROUNDEDRECTD40*%
%ADD41C,1.45000*%
D11*
X9015000Y9275000D02*
D03*
D12*
X8740000Y9615000D02*
D03*
X8790000D02*
D03*
X8840000D02*
D03*
X8890000D02*
D03*
X8940000D02*
D03*
X8990000D02*
D03*
X9040000D02*
D03*
X9090000D02*
D03*
X9140000D02*
D03*
X9190000D02*
D03*
X9240000D02*
D03*
X9290000D02*
D03*
Y8935000D02*
D03*
X9240000D02*
D03*
X9190000D02*
D03*
X9140000D02*
D03*
X9090000D02*
D03*
X9040000D02*
D03*
X8990000D02*
D03*
X8940000D02*
D03*
X8890000D02*
D03*
X8840000D02*
D03*
X8790000D02*
D03*
X8740000D02*
D03*
D13*
X9355000Y9550000D02*
D03*
Y9500000D02*
D03*
Y9450000D02*
D03*
Y9400000D02*
D03*
Y9350000D02*
D03*
Y9300000D02*
D03*
Y9250000D02*
D03*
Y9200000D02*
D03*
Y9150000D02*
D03*
Y9100000D02*
D03*
Y9050000D02*
D03*
Y9000000D02*
D03*
X8675000D02*
D03*
Y9050000D02*
D03*
Y9100000D02*
D03*
Y9150000D02*
D03*
Y9200000D02*
D03*
Y9250000D02*
D03*
Y9300000D02*
D03*
Y9350000D02*
D03*
Y9400000D02*
D03*
Y9450000D02*
D03*
Y9500000D02*
D03*
Y9550000D02*
D03*
D14*
X7737000Y9917000D02*
D03*
Y9867000D02*
D03*
Y9817000D02*
D03*
Y9767000D02*
D03*
Y9717000D02*
D03*
Y9667000D02*
D03*
X7343000D02*
D03*
Y9717000D02*
D03*
Y9767000D02*
D03*
Y9817000D02*
D03*
Y9867000D02*
D03*
Y9917000D02*
D03*
D15*
X7665000Y9595000D02*
D03*
X7615000D02*
D03*
X7565000D02*
D03*
X7515000D02*
D03*
X7465000D02*
D03*
X7415000D02*
D03*
Y9989000D02*
D03*
X7465000D02*
D03*
X7515000D02*
D03*
X7565000D02*
D03*
X7615000D02*
D03*
X7665000D02*
D03*
D16*
X9925000Y7545500D02*
D03*
D17*
X9696000Y8204500D02*
D03*
X9925000D02*
D03*
X10154000D02*
D03*
D18*
X7945000Y9715000D02*
D03*
Y9615000D02*
D03*
X9020000Y8700000D02*
D03*
Y8600000D02*
D03*
X9625000Y8750000D02*
D03*
Y8850000D02*
D03*
X8940000Y9885000D02*
D03*
Y9785000D02*
D03*
X10450000Y8685000D02*
D03*
Y8585000D02*
D03*
Y8425000D02*
D03*
Y8325000D02*
D03*
X9607500Y9612500D02*
D03*
Y9512500D02*
D03*
X8472500Y9065000D02*
D03*
Y9165000D02*
D03*
X8475000Y9550000D02*
D03*
Y9450000D02*
D03*
D19*
X9740500Y9959000D02*
D03*
X9867500D02*
D03*
X9994500D02*
D03*
X9740500Y10086000D02*
D03*
X9867500D02*
D03*
X9994500D02*
D03*
D20*
X8702500Y10100000D02*
D03*
X8602500D02*
D03*
X7980000Y9120000D02*
D03*
X8080000D02*
D03*
X8990000Y10100000D02*
D03*
X8890000D02*
D03*
X9207500Y10102500D02*
D03*
X9307500D02*
D03*
X8040000Y10120000D02*
D03*
X8140000D02*
D03*
X9525000Y9000000D02*
D03*
X9625000D02*
D03*
X8080000Y8950000D02*
D03*
X7980000D02*
D03*
X7720000D02*
D03*
X7820000D02*
D03*
X7145000Y9715000D02*
D03*
X7045000D02*
D03*
X8140000Y10300000D02*
D03*
X8040000D02*
D03*
X8740000Y9790000D02*
D03*
X8640000D02*
D03*
X9460000Y8760000D02*
D03*
X9360000D02*
D03*
X7145000Y9895000D02*
D03*
X7045000D02*
D03*
X7415000Y9405000D02*
D03*
X7515000D02*
D03*
D21*
X7750000Y8760000D02*
D03*
Y8570000D02*
D03*
X7980000Y8760000D02*
D03*
Y8570000D02*
D03*
D22*
X10880000Y9500000D02*
D03*
Y9300000D02*
D03*
D23*
X10610000Y9530000D02*
D03*
Y9465000D02*
D03*
Y9400000D02*
D03*
Y9335000D02*
D03*
Y9270000D02*
D03*
D24*
X10215000Y9145000D02*
D03*
X10065000D02*
D03*
D25*
X9190000Y8765000D02*
D03*
Y8615000D02*
D03*
X8175000Y9550000D02*
D03*
Y9400000D02*
D03*
X10062500Y8972500D02*
D03*
Y8822500D02*
D03*
X10217500Y8975000D02*
D03*
Y8825000D02*
D03*
D26*
X10420000Y7790700D02*
D03*
Y8019300D02*
D03*
D27*
X9825700Y8510000D02*
D03*
X10054300D02*
D03*
D35*
X8685000Y10565000D02*
D03*
D36*
X8035000D02*
D03*
X8685000Y11015000D02*
D03*
X8035000D02*
D03*
D37*
X9613500Y10124100D02*
D03*
Y9920900D02*
D03*
X10121500Y10022500D02*
D03*
D38*
X9246000Y11250000D02*
D03*
X9500000D02*
D03*
X9754000D02*
D03*
X9846000Y10600000D02*
D03*
X9592000D02*
D03*
X9338000D02*
D03*
X10800000Y10354000D02*
D03*
Y10608000D02*
D03*
Y10862000D02*
D03*
X10797500Y8265000D02*
D03*
Y8011000D02*
D03*
Y7757000D02*
D03*
X7065000Y8490500D02*
D03*
Y8744500D02*
D03*
Y8998500D02*
D03*
X7692000Y7925000D02*
D03*
X7946000D02*
D03*
X8200000D02*
D03*
X7692000Y7600000D02*
D03*
X7946000D02*
D03*
X8200000D02*
D03*
D39*
X8992000Y11250000D02*
D03*
X10100000Y10600000D02*
D03*
X7438000Y7925000D02*
D03*
Y7600000D02*
D03*
D40*
X10800000Y10100000D02*
D03*
X10797500Y8519000D02*
D03*
X7065000Y8236500D02*
D03*
D41*
X10610000Y9150000D02*
D03*
Y9650000D02*
D03*
%TF.MD5,95b1f41b5db06ee7c961a810882f491b*%
M02*
