%TF.GenerationSoftware,Altium Limited,Altium Designer,24.1.2 (44)*%
G04 Layer_Color=16711935*
%FSLAX45Y45*%
%MOMM*%
%TF.SameCoordinates,9F746DA8-F38A-4014-887F-1EC8760E2830*%
%TF.FilePolarity,Negative*%
%TF.FileFunction,Soldermask,Bot*%
%TF.Part,Single*%
G01*
G75*
%TA.AperFunction,ComponentPad*%
%ADD66R,1.70120X1.70120*%
%ADD67C,1.70120*%
%ADD68C,1.27020*%
%ADD69C,1.80320*%
G04:AMPARAMS|DCode=70|XSize=1.8032mm|YSize=1.8032mm|CornerRadius=0.5016mm|HoleSize=0mm|Usage=FLASHONLY|Rotation=0.000|XOffset=0mm|YOffset=0mm|HoleType=Round|Shape=RoundedRectangle|*
%AMROUNDEDRECTD70*
21,1,1.80320,0.80000,0,0,0.0*
21,1,0.80000,1.80320,0,0,0.0*
1,1,1.00320,0.40000,-0.40000*
1,1,1.00320,-0.40000,-0.40000*
1,1,1.00320,-0.40000,0.40000*
1,1,1.00320,0.40000,0.40000*
%
%ADD70ROUNDEDRECTD70*%
G04:AMPARAMS|DCode=71|XSize=1.8032mm|YSize=1.8032mm|CornerRadius=0.5016mm|HoleSize=0mm|Usage=FLASHONLY|Rotation=90.000|XOffset=0mm|YOffset=0mm|HoleType=Round|Shape=RoundedRectangle|*
%AMROUNDEDRECTD71*
21,1,1.80320,0.80000,0,0,90.0*
21,1,0.80000,1.80320,0,0,90.0*
1,1,1.00320,0.40000,0.40000*
1,1,1.00320,0.40000,-0.40000*
1,1,1.00320,-0.40000,-0.40000*
1,1,1.00320,-0.40000,0.40000*
%
%ADD71ROUNDEDRECTD71*%
%ADD72C,1.65320*%
%TA.AperFunction,ViaPad*%
%ADD73C,0.90320*%
%ADD74C,0.70320*%
D66*
X8685000Y10565000D02*
D03*
D67*
X8035000D02*
D03*
X8685000Y11015000D02*
D03*
X8035000D02*
D03*
D68*
X9613500Y10124100D02*
D03*
Y9920900D02*
D03*
X10121500Y10022500D02*
D03*
D69*
X9246000Y11250000D02*
D03*
X9500000D02*
D03*
X9754000D02*
D03*
X9846000Y10600000D02*
D03*
X9592000D02*
D03*
X9338000D02*
D03*
X10800000Y10354000D02*
D03*
Y10608000D02*
D03*
Y10862000D02*
D03*
X10797500Y8265000D02*
D03*
Y8011000D02*
D03*
Y7757000D02*
D03*
X7065000Y8490500D02*
D03*
Y8744500D02*
D03*
Y8998500D02*
D03*
X7692000Y7925000D02*
D03*
X7946000D02*
D03*
X8200000D02*
D03*
X7692000Y7600000D02*
D03*
X7946000D02*
D03*
X8200000D02*
D03*
D70*
X8992000Y11250000D02*
D03*
X10100000Y10600000D02*
D03*
X7438000Y7925000D02*
D03*
Y7600000D02*
D03*
D71*
X10800000Y10100000D02*
D03*
X10797500Y8519000D02*
D03*
X7065000Y8236500D02*
D03*
D72*
X10610000Y9150000D02*
D03*
Y9650000D02*
D03*
D73*
X10030000Y8690000D02*
D03*
X10152500D02*
D03*
X10302500Y8160000D02*
D03*
X10215000Y8345000D02*
D03*
X10080000Y8340000D02*
D03*
X7605000Y9852500D02*
D03*
X7610000Y9725000D02*
D03*
X7470000Y9722500D02*
D03*
X7472500Y9860000D02*
D03*
X8337500Y9402500D02*
D03*
X9675000Y10925000D02*
D03*
X9475000Y9825000D02*
D03*
X9317500Y10300000D02*
D03*
X9130000Y10340000D02*
D03*
X9250000Y9900000D02*
D03*
X9125000D02*
D03*
X9900000Y9025000D02*
D03*
X9825000Y9100000D02*
D03*
X9899801Y9275199D02*
D03*
X9825230Y9200230D02*
D03*
X10000000Y10300000D02*
D03*
X9900000Y9800000D02*
D03*
X8935000Y8825000D02*
D03*
X8950000Y8425000D02*
D03*
X8850000Y8675000D02*
D03*
Y8375000D02*
D03*
X8800000Y8775000D02*
D03*
X8775000Y8450000D02*
D03*
X8675000Y8375000D02*
D03*
X8700000Y8775000D02*
D03*
X8375000Y8575000D02*
D03*
Y8800000D02*
D03*
X8125000Y8305000D02*
D03*
X8142950Y8607049D02*
D03*
X8000000Y8305000D02*
D03*
X8300000Y8875000D02*
D03*
X7875000Y8305000D02*
D03*
X8971079Y8200000D02*
D03*
X8200000D02*
D03*
X8507312Y8917583D02*
D03*
X7275000Y8225000D02*
D03*
X7300000Y9025000D02*
D03*
X8950000Y10375000D02*
D03*
X8990000Y10230000D02*
D03*
X8750000Y10225000D02*
D03*
X7240000Y9490000D02*
D03*
X7200000Y10075000D02*
D03*
X7561789Y9128210D02*
D03*
X7575000Y8750000D02*
D03*
Y8950000D02*
D03*
X7900000Y9475000D02*
D03*
X9600000Y8500000D02*
D03*
X9275000Y8475000D02*
D03*
X8175000Y8825000D02*
D03*
X9425000Y7900000D02*
D03*
X8286412Y10200000D02*
D03*
X8292500Y10090000D02*
D03*
X8375000Y10300000D02*
D03*
X10563195Y7650015D02*
D03*
X10436250Y9533750D02*
D03*
X10110000Y10290000D02*
D03*
X8470000Y10090000D02*
D03*
X8030000Y9920000D02*
D03*
X8770000Y9930000D02*
D03*
X9780000Y9610000D02*
D03*
X9575000Y8625000D02*
D03*
X8590000Y9660000D02*
D03*
X8160000Y9730000D02*
D03*
X7650000Y9400000D02*
D03*
X7775000Y9475000D02*
D03*
X6975000Y9575000D02*
D03*
X7050000Y10025000D02*
D03*
X8850000Y9990000D02*
D03*
X9730000Y10283911D02*
D03*
X10350000Y8783911D02*
D03*
X9325000Y8625000D02*
D03*
X8325000Y9025000D02*
D03*
X8525000Y9825000D02*
D03*
X7750000Y10125000D02*
D03*
X7175000Y9575000D02*
D03*
X9870000Y10290000D02*
D03*
X8260000Y9155000D02*
D03*
D74*
X9235000Y9055000D02*
D03*
X9125000D02*
D03*
X9015000D02*
D03*
X8905000D02*
D03*
X8795000D02*
D03*
X9235000Y9165000D02*
D03*
X9125000D02*
D03*
X9015000D02*
D03*
X8905000D02*
D03*
X8795000D02*
D03*
X9235000Y9275000D02*
D03*
X9125000D02*
D03*
X9015000D02*
D03*
X8905000D02*
D03*
X8795000D02*
D03*
X9235000Y9385000D02*
D03*
X9125000D02*
D03*
X9015000D02*
D03*
X8905000D02*
D03*
X8795000D02*
D03*
X9235000Y9495000D02*
D03*
X9125000D02*
D03*
X9015000D02*
D03*
X8905000D02*
D03*
X8795000D02*
D03*
%TF.MD5,e5440d39481dc7ba3fd71804ef53ccc8*%
M02*
